# xmcd
#
# Track frame offsets:
# 150
# 8195
# 34737
# 50090
# 63817
# 81417
# 92891
# 101712
# 121393
# 134009
# 149942
# 166486
# 178547
# 194909
# 217728
# 229646
# 245712
#
# Disc length: 3432 seconds
#
#
# Revision: 2
# Processed by: cddbd v1.4PL0 Copyright (c) Steve Scherf et al.
# Submitted via: FreeRIP 2.40 
#
DISCID=040d6611
DTITLE=Doc and Merle Watson - Remembering Merle
DYEAR=1900
DGENRE=Country
TTITLE0=Frosty Morn
TTITLE1=Omie Wise
TTITLE2=Frankie and Johnny
TTITLE3=Honey Babe Blues
TTITLE4=St. James Infirmary
TTITLE5=Honey Please Don't Go
TTITLE6=Nancy Rowland - Salt Creek
TTITLE7=Miss The Mississippi and You
TTITLE8=Nine Pound Hammer
TTITLE9=Summertime
TTITLE10=New River Train
TTITLE11=Black Mountain Rag
TTITLE12=Southern Lady
TTITLE13=Mama Don't Allow
TTITLE14=Blue Suede Shoes
TTITLE15=Wayfaring Stranger
TTITLE16=THoughts Of Never
EXTD=
EXTT0=
EXTT1=
EXTT2=
EXTT3=
EXTT4=
EXTT5=
EXTT6=
EXTT7=
EXTT8=
EXTT9=
EXTT10=
EXTT11=
EXTT12=
EXTT13=
EXTT14=
EXTT15=
EXTT16=
PLAYORDER=
